<svg width="22" height="24" viewBox="0 0 22 24" fill="none" xmlns="http://www.w3.org/2000/svg">
<path d="M10.8367 0C8.12563 0 5.93877 2.18686 5.93877 4.89796V5.87755H2.06632L2.02041 6.30612L0.0612244 23.449L0 24H21.6735L21.6122 23.449L19.653 6.30612L19.6071 5.87755H15.7347V4.89796C15.7347 2.18686 13.5478 0 10.8367 0ZM10.8367 0.979591C13.0236 0.979591 14.7551 2.71109 14.7551 4.89796V5.87755H6.91836V4.89796C6.91836 2.71109 8.64986 0.979591 10.8367 0.979591ZM2.95408 6.85714H5.93877V7.97448C5.64604 8.14476 5.44897 8.45471 5.44897 8.81632C5.44897 9.35777 5.88711 9.79591 6.42857 9.79591C6.97002 9.79591 7.40816 9.35777 7.40816 8.81632C7.40816 8.45471 7.21109 8.14476 6.91836 7.97448V6.85714H14.7551V7.97448C14.4624 8.14476 14.2653 8.45471 14.2653 8.81632C14.2653 9.35777 14.7034 9.79591 15.2449 9.79591C15.7863 9.79591 16.2245 9.35777 16.2245 8.81632C16.2245 8.45471 16.0274 8.14476 15.7347 7.97448V6.85714H18.7194L20.5714 23.0204H1.10204L2.95408 6.85714Z" fill="black"/>
</svg>
